<?xml version="1.0" encoding="utf-8"?>
<!-- Svg Vector Icons : http://www.onlinewebfonts.com/icon -->
<!DOCTYPE svg PUBLIC "-//W3C//DTD SVG 1.1//EN" "http://www.w3.org/Graphics/SVG/1.1/DTD/svg11.dtd">
<svg version="1.1" xmlns="http://www.w3.org/2000/svg" xmlns:xlink="http://www.w3.org/1999/xlink" x="0px" y="0px" viewBox="0 0 1000 1000" enable-background="new 0 0 1000 1000" xml:space="preserve">
<metadata> Svg Vector Icons : http://www.onlinewebfonts.com/icon </metadata>
<g><g transform="translate(0.000000,512.000000) scale(0.100000,-0.100000)"><path d="M5645.9,5010.6c-117-30.7-222.5-94-316.5-188c-924.6-951.5-1145.2-2351.8-558.2-3543c151.5-306.9,328-550.5,583.1-805.7C5741.8,86.4,6161.9-163,6677.9-312.6c314.6-90.2,491.1-113.2,872.8-113.2c310.8,0,385.6,7.7,602.3,53.7c539,113.2,1041.6,364.5,1436.8,717.4c251.3,226.4,308.9,330,308.9,560.1c0,283.9,118.9,149.6-1922.1,2190.7c-1592.2,1594.1-1830,1822.4-1924,1866.5C5931.7,5016.3,5755.2,5037.4,5645.9,5010.6z M8367.9,872.9c-72.9-61.4-239.8-117-425.8-140c-473.8-59.5-1097.2,120.8-1517.4,439.3c-475.7,358.7-782.6,936.1-840.2,1580.7c-23,260.9,49.9,596.6,157.3,725.1l49.9,59.5l1312.1-1312.1L8415.9,915.1L8367.9,872.9z"/><path d="M9156.3,5010.6c-180.3-46-335.7-170.7-416.3-335.7c-67.1-138.1-67.1-381.7-1.9-517.9c61.4-120.8,176.5-237.9,299.2-297.3c78.6-38.4,124.7-47.9,259-46c138.1,0,178.4,7.7,262.8,51.8c222.5,115.1,339.5,306.9,339.5,550.5c0,107.4-11.5,168.8-44.1,241.7c-51.8,120.8-193.7,260.9-312.7,314.6C9438.3,5018.2,9258,5035.5,9156.3,5010.6z"/><path d="M551,3428c-130.4-36.4-209.1-84.4-299.3-184.2c-109.3-120.8-149.6-232.1-151.5-410.5c-1.9-260.9-5.8-257,846-1104.9c700.2-698.3,752-744.3,859.4-784.6c222.5-82.5,481.5-26.9,646.5,138.1c132.4,130.4,176.5,243.6,178.4,437.4c0,264.7,9.6,253.2-813.3,1080c-613.8,615.8-738.5,732.8-836.4,780.7C836.8,3451,691,3466.3,551,3428z"/><path d="M3340.1,1024.4C3240.4,974.5,3090.8,832.6,2264,1.9c-911.2-915-964.9-972.5-995.6-1072.3c-44.1-134.3-44.1-287.7-1.9-422c32.6-99.8,84.4-155.4,1026.3-1095.3c928.4-928.5,995.6-993.7,1091.5-1024.4c130.4-42.2,299.3-42.2,429.7,0c94,30.7,165,95.9,1068.5,995.6c1093.4,1089.6,1076.1,1066.6,1076.1,1335.1c0,262.8,21.1,235.9-1041.6,1300.6c-694.4,696.3-968.7,959.1-1039.7,995.6c-76.7,40.3-130.4,51.8-259,57.5C3468.7,1080,3445.6,1076.2,3340.1,1024.4z M4040.3-849.8l431.6-431.6l-437.4-437.4l-435.4-435.4l-435.4,435.4l-437.4,437.4l431.6,431.6c237.9,237.9,435.4,431.6,441.2,431.6S3802.5-611.9,4040.3-849.8z"/><path d="M6192.6-2275c-138.1-49.9-270.5-166.9-339.5-301.2c-51.8-101.7-57.5-130.4-57.5-285.8c0-145.8,7.7-189.9,46-260.9c28.8-57.5,293.5-337.6,776.9-821c834.4-838.3,834.4-838.3,1095.3-838.3c128.5,0,170.7,9.6,262.8,53.7c303.1,147.7,433.5,508.3,295.4,809.5c-46,101.7-141.9,205.3-775,840.2c-807.6,809.5-821,819.1-1064.6,832.5C6330.7-2240.5,6267.4-2248.2,6192.6-2275z"/></g></g>
</svg>